<svg width="20" height="20" viewBox="0 0 20 20" fill="none" xmlns="http://www.w3.org/2000/svg">
<path d="M18.8392 18.8281H17.2934V0.585938C17.2934 0.262344 17.031 0 16.7074 0H3.29246C2.96886 0 2.70652 0.262344 2.70652 0.585938V18.8281H1.16074C0.837142 18.8281 0.574799 19.0905 0.574799 19.4141C0.574799 19.7377 0.837142 20 1.16074 20H18.8392C19.1628 20 19.4252 19.7377 19.4252 19.4141C19.4252 19.0905 19.1628 18.8281 18.8392 18.8281V18.8281ZM8.00265 18.8281V14.8336H11.9972V18.8281H8.00265ZM13.1691 18.8281V14.2476C13.1691 13.924 12.9068 13.6617 12.5832 13.6617H7.41671C7.09312 13.6617 6.83078 13.924 6.83078 14.2476V18.8281H3.87839V1.17188H16.1215V18.8281H13.1691Z" fill="#1D24BC"/>
<path d="M8.74009 2.59018H5.86868C5.54509 2.59018 5.28275 2.85252 5.28275 3.17612V6.04752C5.28275 6.37112 5.54509 6.63346 5.86868 6.63346H8.74009C9.06368 6.63346 9.32603 6.37112 9.32603 6.04752V3.17612C9.32603 2.85252 9.06368 2.59018 8.74009 2.59018V2.59018ZM8.15415 5.46159H6.45462V3.76205H8.15415V5.46159Z" fill="#1D24BC"/>
<path d="M14.1312 2.59018H11.2598C10.9362 2.59018 10.6738 2.85252 10.6738 3.17612V6.04752C10.6738 6.37112 10.9362 6.63346 11.2598 6.63346H14.1312C14.4548 6.63346 14.7171 6.37112 14.7171 6.04752V3.17612C14.7171 2.85252 14.4548 2.59018 14.1312 2.59018V2.59018ZM13.5452 5.46159H11.8457V3.76205H13.5452V5.46159Z" fill="#1D24BC"/>
<path d="M8.74009 8.04504H5.86868C5.54509 8.04504 5.28275 8.30739 5.28275 8.63098V11.5024C5.28275 11.826 5.54509 12.0883 5.86868 12.0883H8.74009C9.06368 12.0883 9.32603 11.826 9.32603 11.5024V8.63098C9.32603 8.30739 9.06368 8.04504 8.74009 8.04504ZM8.15415 10.9165H6.45462V9.21692H8.15415V10.9165Z" fill="#1D24BC"/>
<path d="M14.1312 8.04504H11.2598C10.9362 8.04504 10.6738 8.30739 10.6738 8.63098V11.5024C10.6738 11.826 10.9362 12.0883 11.2598 12.0883H14.1312C14.4548 12.0883 14.7171 11.826 14.7171 11.5024V8.63098C14.7171 8.30739 14.4548 8.04504 14.1312 8.04504ZM13.5452 10.9165H11.8457V9.21692H13.5452V10.9165Z" fill="#1D24BC"/>
</svg>
