<svg width="20" height="20" viewBox="0 0 20 20" fill="none" xmlns="http://www.w3.org/2000/svg">
<g clip-path="url(#clip0)">
<path d="M8.29148 15.2439L5.93478 17.6006C4.95774 18.5776 3.37551 18.5776 2.39929 17.6008C1.42288 16.6243 1.42288 15.042 2.3991 14.0657L7.1133 9.35153C8.08952 8.37527 9.67191 8.37527 10.6481 9.35153C10.9736 9.67696 11.5012 9.67696 11.8267 9.35153C12.1521 9.0261 12.1521 8.49844 11.8267 8.17301C10.1995 6.54589 7.5619 6.54589 5.93478 8.17301L1.22061 12.8872C-0.406505 14.5143 -0.406505 17.1519 1.22061 18.779C2.84754 20.407 5.48537 20.407 7.11334 18.779L9.47004 16.4224C9.79547 16.0969 9.79547 15.5693 9.47004 15.2438C9.14461 14.9184 8.61691 14.9184 8.29148 15.2439Z" fill="#1D24BC"/>
<path d="M18.7795 1.2203C17.1524 -0.406807 14.5139 -0.406807 12.8867 1.2203L10.0592 4.04779C9.73379 4.37322 9.73379 4.90087 10.0592 5.2263C10.3847 5.55173 10.9123 5.55173 11.2377 5.2263L14.0653 2.39881C15.0415 1.42256 16.6247 1.42256 17.6009 2.39881C18.5772 3.37502 18.5772 4.9574 17.6009 5.93361L12.4159 11.1186C11.4397 12.0949 9.85731 12.0949 8.88109 11.1186C8.55566 10.7932 8.028 10.7932 7.70257 11.1186C7.37714 11.4441 7.37714 11.9717 7.70257 12.2971C9.32969 13.9242 11.9673 13.9242 13.5944 12.2971L18.7795 7.11216C20.4066 5.48505 20.4066 2.8474 18.7795 1.2203Z" fill="#1D24BC"/>
</g>
<defs>
<clipPath id="clip0">
<rect width="20" height="20" fill="white"/>
</clipPath>
</defs>
</svg>
