<svg width="20" height="20" viewBox="0 0 20 20" fill="none" xmlns="http://www.w3.org/2000/svg">
<path d="M10 0C5.84002 0 2.45581 3.38421 2.45581 7.54368C2.45581 13.5326 9.19055 19.5489 9.47739 19.8026C9.62739 19.9342 9.81371 20 10 20C10.1937 20 10.3874 19.9289 10.5384 19.7874C10.8242 19.52 17.5442 13.1726 17.5442 7.54421C17.5442 3.38474 14.159 0 10 0ZM10 11.1411C8.01318 11.1411 6.40318 9.53 6.40318 7.54474C6.40318 5.55947 8.01318 3.94842 10 3.94842C11.9858 3.94842 13.5958 5.55895 13.5958 7.54474C13.5958 9.53053 11.9858 11.1411 10 11.1411Z" fill="#1D24BC"/>
</svg>
