<svg width="13" height="13" viewBox="0 0 13 13" fill="none" xmlns="http://www.w3.org/2000/svg">
<g clip-path="url(#clip0)">
<path d="M12.9661 4.98673C12.881 4.72349 12.6475 4.53653 12.3713 4.51164L8.61915 4.17094L7.13544 0.698184C7.02604 0.443676 6.77689 0.278931 6.50007 0.278931C6.22324 0.278931 5.97409 0.443676 5.86469 0.698779L4.38099 4.17094L0.628234 4.51164C0.352501 4.53713 0.119615 4.72349 0.0340187 4.98673C-0.0515777 5.24997 0.0274725 5.53869 0.236058 5.7207L3.07224 8.20805L2.23592 11.8921C2.17472 12.1629 2.27986 12.4429 2.50461 12.6054C2.62542 12.6927 2.76675 12.7371 2.90928 12.7371C3.03217 12.7371 3.15407 12.704 3.26347 12.6385L6.50007 10.7041L9.73547 12.6385C9.97222 12.781 10.2707 12.768 10.4949 12.6054C10.7198 12.4424 10.8248 12.1623 10.7636 11.8921L9.92729 8.20805L12.7635 5.72119C12.9721 5.53869 13.0517 5.25046 12.9661 4.98673V4.98673Z" fill="#1D24BC"/>
</g>
<defs>
<clipPath id="clip0">
<rect width="13" height="13" fill="white"/>
</clipPath>
</defs>
</svg>
