<svg width="20" height="20" viewBox="0 0 20 20" fill="none" xmlns="http://www.w3.org/2000/svg">
<path d="M0.39417 16.3292C2.24584 17.5042 4.40084 18.125 6.62584 18.125C9.88417 18.125 12.87 16.8733 15.0342 14.6008C17.105 12.4258 18.2442 9.50333 18.1875 6.5375C18.9725 5.86583 19.8958 4.58333 19.8958 3.33333C19.8958 2.85417 19.3758 2.55 18.9542 2.79417C18.2167 3.2275 17.5442 3.34083 16.8525 3.14667C15.44 1.77 13.3375 1.48 11.5658 2.435C10.0175 3.26833 9.15667 4.79333 9.23417 6.46C6.61834 6.14083 4.20167 4.82917 2.51667 2.79083C2.24 2.45833 1.715 2.4975 1.495 2.87417C0.683337 4.26417 0.691671 5.875 1.3975 7.17583C1.06167 7.235 0.85417 7.5175 0.85417 7.82333C0.85417 9.13083 1.4425 10.3325 2.39 11.1525C2.21334 11.3225 2.155 11.575 2.23 11.8C2.64667 13.0517 3.59 14.03 4.76917 14.52C3.48667 15.1325 2.06834 15.3367 0.805837 15.1817C0.152504 15.0933 -0.169996 15.9717 0.39417 16.3292V16.3292ZM6.79667 14.7342C7.26417 14.375 7.01584 13.6267 6.42917 13.6142C5.39584 13.5925 4.455 13.0833 3.86917 12.2825C4.15167 12.2642 4.44417 12.2208 4.7225 12.1458C5.35667 11.9742 5.32667 11.0592 4.6825 10.93C3.51334 10.695 2.59584 9.84333 2.25167 8.74666C2.56584 8.82416 2.88584 8.8675 3.205 8.87333C3.8375 8.87666 4.07667 8.06583 3.56084 7.72666C2.39834 6.96083 1.9025 5.60833 2.23084 4.33667C4.26084 6.39333 7.015 7.6325 9.92834 7.7725C10.3458 7.79833 10.6592 7.40583 10.5675 7.00833C10.1717 5.2925 11.13 4.09 12.1592 3.53583C13.1775 2.98583 14.8125 2.81417 16.0658 4.12917C16.4383 4.52167 17.695 4.53667 18.3342 4.3875C18.0475 4.9275 17.6067 5.44 17.1942 5.72833C17.0183 5.85166 16.9175 6.05666 16.9283 6.27083C17.0625 9.00833 16.0425 11.73 14.13 13.7375C12.2033 15.76 9.53917 16.8742 6.62667 16.8742C5.46834 16.8742 4.3325 16.6858 3.25917 16.3225C4.5425 16.0742 5.76167 15.5308 6.79667 14.7342V14.7342Z" fill="#1D24BC"/>
</svg>
